# xmcd
#
# Track frame offsets:
#	150
#	17725
#	35371
#	51699
#	70324
#	88138
#	112471
#	135885
#	155443
#	172091
#	214530
#	231594
#	261220
#	275764
#
# Disc length: 3878 seconds
#
# Revision: 7
# Processed by: cddbd v1.5.2PL0 Copyright (c) Steve Scherf et al.
# Submitted via: Jack! The Knife 20 Magnifico
#
DISCID=d80f240e
DTITLE=Janis Joplin - The Best Blues
DYEAR=2013
DGENRE=Blues
TTITLE0=Try (Just A Little Bit Harder)
TTITLE1=Cry Baby
TTITLE2=Maybe
TTITLE3=One Good Man
TTITLE4=Summertime
TTITLE5=As Good As You've Been To This World
TTITLE6=To Love Somebody
TTITLE7=Kozmic Blues
TTITLE8=My Baby
TTITLE9=Ball And Chain
TTITLE10=Little Girl Blue
TTITLE11=Work Me, Lord
TTITLE12=Trust Me
TTITLE13=Get It While You Can
EXTD=
EXTT0=
EXTT1=
EXTT2=
EXTT3=
EXTT4=
EXTT5=
EXTT6=
EXTT7=
EXTT8=
EXTT9=
EXTT10=
EXTT11=
EXTT12=
EXTT13=
PLAYORDER=
